<svg width="14" height="15" viewBox="0 0 14 15" fill="none" xmlns="http://www.w3.org/2000/svg">
<g clip-path="url(#clip0_122_483)">
<path d="M0 1.10667V10.16C0 10.3156 0.0544443 10.4556 0.163333 10.58C0.272223 10.7044 0.412222 10.7667 0.583333 10.7667C0.754444 10.7667 0.902223 10.7044 1.02667 10.58C1.15111 10.4556 1.21333 10.3156 1.21333 10.16V2.55333L12.9733 14.3133C13.0978 14.4378 13.2456 14.5 13.4167 14.5C13.5878 14.5 13.7278 14.4456 13.8367 14.3367C13.9456 14.2278 14 14.0878 14 13.9167C14 13.7456 13.9378 13.5978 13.8133 13.4733L2.05333 1.71333H9.66C9.81556 1.71333 9.95556 1.65111 10.08 1.52667C10.2044 1.40222 10.2667 1.25444 10.2667 1.08333C10.2667 0.912222 10.2044 0.772223 10.08 0.663333C9.95556 0.554444 9.81556 0.5 9.66 0.5H0.606667C0.42 0.5 0.272223 0.554444 0.163333 0.663333C0.0544443 0.772223 0 0.92 0 1.10667Z" fill="white"/>
</g>
<defs>
<clipPath id="clip0_122_483">
<rect width="14" height="14" fill="white" transform="matrix(-1 0 0 -1 14 14.5)"/>
</clipPath>
</defs>
</svg>
